<svg width="42" height="48" viewBox="0 0 42 48" fill="none" xmlns="http://www.w3.org/2000/svg">
<path d="M30.432 4.86581H30.408C25.332 4.8713 23.094 7.1753 23.094 9.27084C23.094 10.3954 23.094 17.2526 23.094 17.9218C23.094 19.6663 23.946 20.4782 24.984 21.1255C26.106 21.8222 27.504 22.7767 28.032 23.1662C28.548 23.5447 29.052 24.0603 29.046 24.5047C29.046 24.5486 29.046 24.6034 29.046 24.6034H30.402H30.426H31.782C31.782 24.6034 31.782 24.5595 31.782 24.5047C31.782 24.0548 32.28 23.5447 32.796 23.1662C33.324 22.7767 34.722 21.8222 35.844 21.1255C36.882 20.4782 37.734 19.6663 37.734 17.9218C37.734 17.2526 37.734 10.3954 37.734 9.27084C37.746 7.1753 35.508 4.87679 30.432 4.86581Z" fill="white"/>
<path d="M31.782 34.0992C31.182 34.3899 29.64 34.3899 29.04 34.0992C28.908 34.0334 28.806 33.7701 28.77 33.6219C28.656 33.1282 28.974 32.1463 28.974 31.6416C28.974 30.6816 29.04 25.6622 29.04 25.6622H31.782C31.782 25.6622 31.848 30.8133 31.848 31.6416C31.848 32.1463 32.166 33.1282 32.052 33.6219C32.022 33.7646 31.92 34.0389 31.782 34.0992Z" fill="white"/>
<path d="M31.836 25.4482H29.004C28.944 25.4482 28.896 25.4043 28.896 25.3495V24.9216C28.896 24.8667 28.944 24.8228 29.004 24.8228H31.836C31.896 24.8228 31.944 24.8667 31.944 24.9216V25.3495C31.944 25.4043 31.896 25.4482 31.836 25.4482Z" fill="white"/>
<path d="M24.78 21.3998C24.33 21.12 23.754 20.7195 23.346 20.1106C22.938 19.5072 22.734 18.794 22.734 17.9218V9.27084C22.734 8.05301 23.424 6.8681 24.63 6.0233C25.212 5.61187 25.908 5.28821 26.694 5.04136C26.016 4.92616 25.26 4.86581 24.432 4.86581H24.408C19.332 4.8713 17.094 7.1753 17.094 9.27084C17.094 10.3954 17.094 17.2526 17.094 17.9218C17.094 19.6663 17.946 20.4782 18.984 21.1255C20.106 21.8222 21.504 22.7767 22.032 23.1662C22.548 23.5447 23.052 24.0603 23.046 24.5047C23.046 24.5486 23.046 24.6034 23.046 24.6034H24.402H24.426H25.782C25.782 24.6034 25.782 24.5595 25.782 24.5047C25.782 24.0548 26.28 23.5447 26.796 23.1662C26.88 23.1003 26.988 23.0235 27.12 22.9358C26.46 22.4804 25.542 21.8715 24.78 21.3998Z" fill="white"/>
<path d="M25.782 34.0992C25.182 34.3899 23.64 34.3899 23.04 34.0992C22.908 34.0334 22.806 33.7701 22.77 33.6219C22.656 33.1282 22.974 32.1463 22.974 31.6416C22.974 30.6816 23.04 25.6622 23.04 25.6622H25.782C25.782 25.6622 25.848 30.8133 25.848 31.6416C25.848 32.1463 26.166 33.1282 26.052 33.6219C26.022 33.7646 25.92 34.0389 25.782 34.0992Z" fill="white"/>
<path d="M25.836 25.4482H23.004C22.944 25.4482 22.896 25.4043 22.896 25.3495V24.9216C22.896 24.8667 22.944 24.8228 23.004 24.8228H25.836C25.896 24.8228 25.944 24.8667 25.944 24.9216V25.3495C25.944 25.4043 25.896 25.4482 25.836 25.4482Z" fill="white"/>
<path d="M18.792 21.3998C18.342 21.12 17.766 20.7195 17.358 20.1106C16.95 19.5072 16.746 18.794 16.746 17.9218V9.27084C16.746 8.05301 17.436 6.8681 18.642 6.0233C19.224 5.61187 19.92 5.28821 20.706 5.04136C20.028 4.92616 19.272 4.86581 18.444 4.86581H18.42C13.338 4.8713 11.1 7.1753 11.1 9.27084C11.1 10.3954 11.1 17.2526 11.1 17.9218C11.1 19.6663 11.952 20.4782 12.99 21.1255C14.112 21.8222 15.51 22.7767 16.038 23.1662C16.554 23.5447 17.058 24.0603 17.052 24.5047C17.052 24.5486 17.052 24.6034 17.052 24.6034H18.408H18.432H19.788C19.788 24.6034 19.788 24.5595 19.788 24.5047C19.788 24.0548 20.286 23.5447 20.802 23.1662C20.886 23.1003 20.994 23.0235 21.126 22.9358C20.466 22.4804 19.554 21.8715 18.792 21.3998Z" fill="white"/>
<path d="M19.788 34.0992C19.188 34.3899 17.646 34.3899 17.046 34.0992C16.914 34.0334 16.812 33.7701 16.776 33.6219C16.662 33.1282 16.98 32.1463 16.98 31.6416C16.98 30.6816 17.046 25.6622 17.046 25.6622H19.788C19.788 25.6622 19.854 30.8133 19.854 31.6416C19.854 32.1463 20.172 33.1282 20.058 33.6219C20.028 33.7646 19.926 34.0389 19.788 34.0992Z" fill="white"/>
<path d="M19.842 25.4482H17.01C16.95 25.4482 16.902 25.4043 16.902 25.3495V24.9216C16.902 24.8667 16.95 24.8228 17.01 24.8228H19.842C19.902 24.8228 19.95 24.8667 19.95 24.9216V25.3495C19.95 25.4043 19.902 25.4482 19.842 25.4482Z" fill="white"/>
<path d="M12.774 21.3998C12.324 21.12 11.748 20.7195 11.34 20.1106C10.932 19.5072 10.728 18.794 10.728 17.9218V9.27084C10.728 8.05301 11.418 6.8681 12.624 6.0233C13.206 5.61187 13.902 5.28821 14.688 5.04136C14.01 4.92616 13.254 4.86581 12.426 4.86581H12.402C7.32601 4.8713 5.08801 7.1753 5.08801 9.27084C5.08801 10.3954 5.08801 17.2526 5.08801 17.9218C5.08801 19.6663 5.94001 20.4782 6.97801 21.1255C8.10001 21.8222 9.49801 22.7767 10.026 23.1662C10.542 23.5447 11.046 24.0603 11.04 24.5047C11.04 24.5486 11.04 24.6034 11.04 24.6034H12.396H12.42H13.776C13.776 24.6034 13.776 24.5595 13.776 24.5047C13.776 24.0548 14.274 23.5447 14.79 23.1662C14.874 23.1003 14.982 23.0235 15.114 22.9358C14.448 22.4804 13.536 21.8715 12.774 21.3998Z" fill="white"/>
<path d="M13.776 34.0992C13.176 34.3899 11.634 34.3899 11.034 34.0992C10.902 34.0334 10.8 33.7701 10.764 33.6219C10.65 33.1282 10.968 32.1463 10.968 31.6416C10.968 30.6816 11.034 25.6622 11.034 25.6622H13.776C13.776 25.6622 13.842 30.8133 13.842 31.6416C13.842 32.1463 14.16 33.1282 14.046 33.6219C14.016 33.7646 13.914 34.0389 13.776 34.0992Z" fill="white"/>
<path d="M13.83 25.4482H10.998C10.938 25.4482 10.89 25.4043 10.89 25.3495V24.9216C10.89 24.8667 10.938 24.8228 10.998 24.8228H13.83C13.89 24.8228 13.938 24.8667 13.938 24.9216V25.3495C13.938 25.4043 13.89 25.4482 13.83 25.4482Z" fill="white"/>
</svg>
